# xmcd
#
# Track frame offsets:
#	150
#	9456
#	19214
#	28897
#	41486
#	53892
#	63532
#	76412
#	85787
#	98308
#	112334
#	122910
#	136473
#	149033
#	161996
#	172877
#	182187
#	195373
#	209237
#	222534
#
# Disc length: 3160 seconds
#
# Revision: 1
# Processed by: cddbd v1.5.2PL0 Copyright (c) Steve Scherf et al.
# Submitted via: audiograbber 1.83.01
#
DISCID=2e0c5614
DTITLE=Various Artist - American Roadsongs - CD 3 - Greetings
DYEAR=1900
DGENRE=Country
TTITLE0=Elvis Presley - Blue Moon Of Kentucky
TTITLE1=Ramblin Everett - Cincinnati Woman
TTITLE2=Johnny Rowland - Ohio Baby
TTITLE3=Don Gibson - Carolina Breakdown
TTITLE4=Red Foley - Kentucky Fox Chase
TTITLE5=Rocky Rauch - Colorado Boogie
TTITLE6=Slim Williams - Kentucky Highway
TTITLE7=Jack Luker - My Smokey Mountain Gal
TTITLE8=Roy Acuff - Wabash Cannonball
TTITLE9=Amos Milburn - Birmingham Bounce
TTITLE10=Ella Moe Morse - Tennessee Saturday Night
TTITLE11=L.C. Williams - Louisiana Boogie
TTITLE12=Johnny Bond - Cream Of Kentucky
TTITLE13=Bullmoose Jackson - Cleveland Ohio Blues
TTITLE14=The Blues Chasers - Birmingham Special
TTITLE15=Marvin Wright - Kentucky Home Boogie
TTITLE16=Cowboy Copas - Kentucky Waltz
TTITLE17=Bill Monroe - Blue Moon Of Kentucky
TTITLE18=Billy O'Neal - Kentucky Blues
TTITLE19=Red Foley - Giles County, Pulaski Post Office
EXTD=
EXTT0=
EXTT1=
EXTT2=
EXTT3=
EXTT4=
EXTT5=
EXTT6=
EXTT7=
EXTT8=
EXTT9=
EXTT10=
EXTT11=
EXTT12=
EXTT13=
EXTT14=
EXTT15=
EXTT16=
EXTT17=
EXTT18=
EXTT19=
PLAYORDER=
